<?xml version="1.0" encoding="utf-8"?>
<!-- Generator: Adobe Illustrator 24.0.0, SVG Export Plug-In . SVG Version: 6.00 Build 0)  -->
<svg version="1.1" id="Layer_1" xmlns="http://www.w3.org/2000/svg" xmlns:xlink="http://www.w3.org/1999/xlink" x="0px" y="0px"
	 width="1612.255px" height="305.021px" viewBox="0 0 1612.255 305.021" style="enable-background:new 0 0 1612.255 305.021;"
	 xml:space="preserve">
<style type="text/css">
	.st0{fill:#CE2029;}
	.st1{fill:#FFFFFF;}
	.st2{fill:#047C3F;}
	.st3{fill:#010101;}
	.st4{fill:#231F20;}
</style>
<g>
	<g>
		<path class="st0" d="M254.716,51.195c-55.98-55.98-146.74-55.98-202.72,0c-55.98,55.979-55.98,146.736,0,202.717
			c1.545,1.542,3.119,3.038,4.712,4.494L259.212,55.907C257.755,54.307,256.259,52.736,254.716,51.195z"/>
		<polygon class="st1" points="111.314,84.003 102.223,60.97 93.134,84.003 69.446,76.765 81.787,98.233 61.355,112.214 
			85.835,115.949 84.031,140.663 102.223,123.849 120.417,140.663 118.613,115.949 143.096,112.214 122.661,98.233 135,76.765 		"/>
		<path class="st2" d="M157.961,295.812c35.134-1.122,69.936-15.081,96.755-41.9c26.816-26.818,40.778-61.619,41.9-96.758
			L157.961,295.812z"/>
		<path class="st3" d="M119.919,291.956l172.84-172.843c-3.243-13.579-8.487-26.772-15.74-39.115L80.803,276.214
			C93.146,283.47,106.342,288.711,119.919,291.956z"/>
	</g>
	<g>
		<g>
			<path class="st4" d="M397.996,59.82v46.318c0,15.64-8.211,22.285-20.818,22.285c-7.037,0-12.607-2.348-16.807-7.037l5.668-6.352
				c2.635,2.635,7.428,5.275,10.846,5.275c7.526,0,12.509-3.417,12.509-14.27V59.818h8.602V59.82z"/>
			<path class="st4" d="M446.364,87.081c2.25,3.424,3.326,8.406,3.326,14.857c0,8.309-0.978,14.172-3.032,17.59
				c-3.222,5.569-9.672,8.895-17.394,8.895c-7.331,0-12.705-2.445-16.025-7.33c-2.445-3.619-3.619-9.385-3.619-17.297
				c0-5.961,0.782-10.559,2.445-13.878c3.222-6.939,9.966-10.944,18.275-10.944C437.571,78.974,442.945,81.707,446.364,87.081z
				 M417.634,103.894c0,4.886,0.489,8.401,1.467,10.553c1.951,4.397,5.374,6.647,10.259,6.647c5.863,0,9.672-2.836,11.433-8.602
				c0.489-1.762,0.782-5.18,0.782-10.26c0-4.011-0.391-6.94-1.272-8.994c-1.853-4.69-5.276-7.037-10.259-7.037
				s-8.602,2.25-10.65,6.842C418.318,95.292,417.732,98.906,417.634,103.894z"/>
			<path class="st4" d="M487.406,88.647c-1.859-1.272-4.206-1.858-6.842-1.858c-6.645,0-11.042,4.206-11.042,11.727v29.322h-8.015
				V79.366h8.015v6.157h0.391c3.026-4.402,7.325-6.646,12.705-6.646c3.418,0,6.157,0.68,8.205,2.049L487.406,88.647z"/>
			<path class="st4" d="M530.889,127.837h-8.015v-4.69l-0.293-0.098c-3.809,3.613-8.303,5.373-13.58,5.373
				c-6.645,0-11.341-2.641-13.683-7.33c-2.348-4.689-3.228-9.873-3.228-17.003c0-16.813,6.254-25.214,18.861-25.214
				c5.374,0,9.287,1.657,11.727,4.885h0.196V56.883h8.015L530.889,127.837L530.889,127.837z M521.021,92.652
				c-1.271-3.613-4.401-5.766-9.091-5.766c-4.788,0-8.016,1.956-9.575,5.472c-1.467,3.522-1.859,6.646-1.859,11.243
				c0,4.005,0.196,6.647,1.076,9.771c1.271,4.396,4.005,7.135,9.966,7.135c7.526,0,11.335-5.667,11.335-16.905
				C522.874,99.297,522.483,96.173,521.021,92.652z"/>
			<path class="st4" d="M578.278,94.51v33.327h-8.107v-4.207l-0.098-0.098c-1.859,2.837-7.037,4.891-13.39,4.891
				c-10.852,0-17.204-5.863-17.204-14.367c0-8.113,5.575-14.27,15.443-14.27h15.248v-5.473c0-5.275-3.717-7.917-11.146-7.917
				c-5.374,0-9.183,1.37-11.531,4.206l-5.081-5.374c3.613-4.206,9.091-6.353,16.318-6.353
				C571.731,78.876,578.278,84.055,578.278,94.51z M557.662,121.093c8.303,0,12.509-3.032,12.509-8.993v-5.668h-13.292
				c-6.254,0-9.776,2.544-9.776,7.135C547.104,118.257,550.723,121.093,557.662,121.093z"/>
			<path class="st4" d="M627.043,127.837h-8.015V98.808c0-7.912-2.929-12.02-11.042-12.02c-6.646,0-11.335,4.695-11.335,12.02
				v29.029h-8.015V79.268h8.015v6.157h0.293c3.222-4.207,8.597-6.549,13.977-6.549c9.672,0,16.122,5.961,16.122,16.808V127.837z"/>
			<path class="st4" d="M703.749,59.82l-20.427,41.043v26.975h-8.205v-26.975L654.69,59.82h9.091l9.477,18.861l6.059,12.998
				l6.353-13.585l9.189-18.274L703.749,59.82L703.749,59.82z"/>
			<path class="st4" d="M739.999,87.081c2.25,3.424,3.326,8.406,3.326,14.857c0,8.309-0.978,14.172-3.032,17.59
				c-3.222,5.569-9.672,8.895-17.394,8.895c-7.331,0-12.705-2.445-16.025-7.33c-2.445-3.619-3.619-9.385-3.619-17.297
				c0-5.961,0.783-10.559,2.445-13.878c3.223-6.939,9.966-10.944,18.275-10.944C731.207,78.974,736.581,81.707,739.999,87.081z
				 M711.269,103.894c0,4.886,0.489,8.401,1.467,10.553c1.951,4.397,5.375,6.647,10.259,6.647c5.863,0,9.672-2.836,11.433-8.602
				c0.489-1.762,0.783-5.18,0.783-10.26c0-4.011-0.391-6.94-1.271-8.994c-1.853-4.69-5.276-7.037-10.259-7.037
				s-8.602,2.25-10.651,6.842C711.954,95.292,711.367,98.906,711.269,103.894z"/>
			<path class="st4" d="M792.377,127.837h-8.015v-5.473h-0.294c-3.124,4.005-7.52,6.059-13.292,6.059
				c-10.455,0-16.807-5.275-16.807-16.91V79.366h8.015v29.12c0,8.891,2.538,12.315,11.14,12.315c6.548,0,11.238-4.983,11.238-12.315
				v-29.12h8.015V127.837z"/>
			<path class="st4" d="M824.916,127.837h-5.766c-6.744,0-11.237-4.207-11.237-11.336V86.299h-5.771v-6.934h5.771V67.339h8.009
				v12.026h7.429v6.934h-7.429v28.246c0,4.005,1.565,6.059,4.788,6.059h4.206V127.837z"/>
			<path class="st4" d="M872.702,127.837h-8.016V98.808c0-7.912-2.929-12.02-10.65-12.02c-6.646,0-11.727,4.695-11.727,12.02v29.029
				h-8.015V56.884h8.015v28.541h0.294c3.418-4.402,7.917-6.549,13.486-6.549c9.771,0,16.612,5.961,16.612,16.808v32.153H872.702z"/>
			<path class="st4" d="M916.179,127.837h-8.597V59.819h8.597V127.837z"/>
			<path class="st4" d="M967.585,127.837h-8.016V98.808c0-7.912-2.929-12.02-11.042-12.02c-6.646,0-11.335,4.695-11.335,12.02
				v29.029h-8.016V79.268h8.016v6.157h0.293c3.223-4.207,8.597-6.549,13.977-6.549c9.673,0,16.123,5.961,16.123,16.808
				L967.585,127.837L967.585,127.837z"/>
			<path class="st4" d="M1017.028,127.837h-8.016V98.808c0-7.912-2.929-12.02-11.041-12.02c-6.646,0-11.336,4.695-11.336,12.02
				v29.029h-8.015V79.268h8.015v6.157h0.294c3.222-4.207,8.596-6.549,13.975-6.549c9.673,0,16.123,5.961,16.123,16.808v32.153
				H1017.028z"/>
			<path class="st4" d="M1064.326,87.081c2.249,3.424,3.325,8.406,3.325,14.857c0,8.309-0.979,14.172-3.032,17.59
				c-3.222,5.569-9.673,8.895-17.395,8.895c-7.33,0-12.704-2.445-16.024-7.33c-2.445-3.619-3.619-9.385-3.619-17.297
				c0-5.961,0.782-10.559,2.445-13.878c3.223-6.939,9.966-10.944,18.275-10.944C1055.534,78.974,1060.908,81.707,1064.326,87.081z
				 M1035.597,103.894c0,4.886,0.488,8.401,1.467,10.553c1.951,4.397,5.374,6.647,10.26,6.647c5.863,0,9.672-2.836,11.433-8.602
				c0.489-1.762,0.782-5.18,0.782-10.26c0-4.011-0.391-6.94-1.271-8.994c-1.853-4.69-5.276-7.037-10.259-7.037
				s-8.603,2.25-10.65,6.842C1036.281,95.292,1035.695,98.906,1035.597,103.894z"/>
			<path class="st4" d="M1093.05,116.599h0.391c2.642-8.211,4.402-13.585,5.087-16.03l7.031-21.203h8.896l-17.883,48.472h-7.037
				l-17.981-48.472h8.792l7.037,21.106L1093.05,116.599z"/>
			<path class="st4" d="M1157.252,94.51v33.327h-8.107v-4.207l-0.098-0.098c-1.858,2.837-7.037,4.891-13.39,4.891
				c-10.852,0-17.204-5.863-17.204-14.367c0-8.113,5.575-14.27,15.443-14.27h15.248v-5.473c0-5.275-3.717-7.917-11.146-7.917
				c-5.374,0-9.183,1.37-11.53,4.206l-5.081-5.374c3.613-4.206,9.091-6.353,16.318-6.353
				C1150.704,78.876,1157.252,84.055,1157.252,94.51z M1136.636,121.093c8.303,0,12.509-3.032,12.509-8.993v-5.668h-13.291
				c-6.255,0-9.776,2.544-9.776,7.135C1126.077,118.257,1129.696,121.093,1136.636,121.093z"/>
			<path class="st4" d="M1188.329,127.837h-5.766c-6.743,0-11.237-4.207-11.237-11.336V86.299h-5.771v-6.934h5.771V67.339h8.01
				v12.026h7.428v6.934h-7.428v28.246c0,4.005,1.564,6.059,4.787,6.059h4.206V127.837z"/>
			<path class="st4" d="M1207.191,67.83h-8.016v-8.01h8.016V67.83z M1207.191,127.837h-8.016V79.365h8.016V127.837z"/>
			<path class="st4" d="M1255.852,87.081c2.25,3.424,3.326,8.406,3.326,14.857c0,8.309-0.979,14.172-3.032,17.59
				c-3.223,5.569-9.673,8.895-17.395,8.895c-7.33,0-12.705-2.445-16.024-7.33c-2.446-3.619-3.62-9.385-3.62-17.297
				c0-5.961,0.783-10.559,2.446-13.878c3.222-6.939,9.966-10.944,18.274-10.944C1247.06,78.974,1252.434,81.707,1255.852,87.081z
				 M1227.122,103.894c0,4.886,0.489,8.401,1.468,10.553c1.95,4.397,5.374,6.647,10.259,6.647c5.863,0,9.673-2.836,11.434-8.602
				c0.488-1.762,0.782-5.18,0.782-10.26c0-4.011-0.392-6.94-1.271-8.994c-1.853-4.69-5.276-7.037-10.26-7.037
				c-4.982,0-8.602,2.25-10.65,6.842C1227.807,95.292,1227.22,98.906,1227.122,103.894z"/>
			<path class="st4" d="M1308.23,127.837h-8.015V98.808c0-7.912-2.929-12.02-11.042-12.02c-6.646,0-11.335,4.695-11.335,12.02
				v29.029h-8.016V79.268h8.016v6.157h0.293c3.223-4.207,8.597-6.549,13.977-6.549c9.672,0,16.122,5.961,16.122,16.808V127.837z"/>
			<path class="st4" d="M1386.11,67.731h-34.402v22.482h29.321v7.525h-29.321v30.1h-8.597V59.82h42.999V67.731z"/>
			<path class="st4" d="M1428.614,87.081c2.25,3.424,3.325,8.406,3.325,14.857c0,8.309-0.978,14.172-3.032,17.59
				c-3.222,5.569-9.672,8.895-17.395,8.895c-7.33,0-12.704-2.445-16.024-7.33c-2.445-3.619-3.619-9.385-3.619-17.297
				c0-5.961,0.782-10.559,2.445-13.878c3.223-6.939,9.966-10.944,18.274-10.944C1419.822,78.974,1425.196,81.707,1428.614,87.081z
				 M1399.885,103.894c0,4.886,0.489,8.401,1.467,10.553c1.951,4.397,5.374,6.647,10.26,6.647c5.863,0,9.678-2.836,11.433-8.602
				c0.489-1.762,0.783-5.18,0.783-10.26c0-4.011-0.392-6.94-1.272-8.994c-1.853-4.69-5.276-7.037-10.259-7.037
				s-8.603,2.25-10.65,6.842C1400.57,95.292,1399.983,98.906,1399.885,103.894z"/>
			<path class="st4" d="M1469.657,88.647c-1.859-1.272-4.207-1.858-6.842-1.858c-6.646,0-11.042,4.206-11.042,11.727v29.322h-8.015
				V79.366h8.015v6.157h0.392c3.026-4.402,7.324-6.646,12.705-6.646c3.417,0,6.156,0.68,8.205,2.049L1469.657,88.647z"/>
			<path class="st4" d="M1516.655,127.837h-8.016v-5.473h-0.293c-3.125,4.005-7.521,6.059-13.292,6.059
				c-10.455,0-16.808-5.275-16.808-16.91V79.366h8.016v29.12c0,8.891,2.537,12.315,11.14,12.315c6.548,0,11.237-4.983,11.237-12.315
				v-29.12h8.016L1516.655,127.837L1516.655,127.837z"/>
			<path class="st4" d="M1597.274,127.837h-8.015V98.808c0-7.912-3.027-12.215-11.14-12.215c-6.548,0-11.14,4.891-11.14,12.215
				v29.029h-8.113V98.808c0-8.108-3.711-12.215-11.14-12.215c-6.548,0-11.14,4.891-11.14,12.215v29.029h-8.113V79.365h8.113v5.961
				h0.195c3.32-4.304,7.82-6.45,13.487-6.45c5.961,0,10.749,2.342,14.362,6.934h0.098c4.206-4.592,9.58-6.934,15.933-6.934
				c9.673,0,16.611,6.255,16.611,16.709v32.252H1597.274z"/>
			<path class="st4" d="M413.244,221.062h-21.888c-17.492,0-26.192-8.205-26.192-24.725v-9.672h7.526v6.449
				c0,13.293,4.494,19.938,18.079,19.938h14.949V191.55c0-11.041,6.548-16.904,16.813-16.904h12.998v38.406h5.863v8.01h-13.488
				v-38.31h-5.863c-6.352,0-8.797,3.62-8.797,10.755V221.062z M393.208,237.191h-8.009v-8.113h8.009V237.191z M404.745,237.191
				h-8.016v-8.113h8.016V237.191z"/>
			<path class="st4" d="M449.2,176.889h7.526v27.269c0,11.236-5.086,16.904-15.346,16.904c-2.348,0-4.298-1.559-4.298-3.906
				c0-2.348,1.951-4.104,4.298-4.104c3.418,0,5.57-0.88,6.45-2.738s1.369-4.982,1.369-9.287L449.2,176.889L449.2,176.889z
				 M453.205,237.191h-8.015v-8.113h8.015V237.191z"/>
			<path class="st4" d="M483.597,221.062h-2.543c-8.89,0-11.922-3.418-11.922-13.193v-57.752h7.624v56.389
				c0,4.592,1.174,6.547,6.255,6.547h0.587L483.597,221.062L483.597,221.062z"/>
			<path class="st4" d="M491.417,202.886v-19.644h7.526v20.72c0,5.863,2.44,8.896,7.325,9.091v8.01
				c-4.396,0-8.89-1.656-10.749-5.275c-2.445,3.522-6.45,5.275-11.922,5.275c-2.348,0-4.298-1.559-4.298-3.906
				c0-2.348,1.951-4.104,4.298-4.104C489.167,213.052,491.417,209.923,491.417,202.886z M497.965,237.191h-8.016v-8.113h8.016
				V237.191z"/>
			<path class="st4" d="M513.794,213.052v8.01h-7.526c-2.348,0-4.298-1.559-4.298-3.906c0-2.348,1.951-4.104,4.298-4.104H513.794z"
				/>
			<path class="st4" d="M521.314,213.052v8.01h-7.526c-2.348,0-4.298-1.559-4.298-3.906c0-2.348,1.951-4.104,4.298-4.104H521.314z"
				/>
			<path class="st4" d="M528.841,213.052v8.01h-7.526c-2.348,0-4.298-1.559-4.298-3.906c0-2.348,1.95-4.104,4.298-4.104H528.841z"/>
			<path class="st4" d="M536.361,213.052v8.01h-7.526c-2.348,0-4.298-1.559-4.298-3.906c0-2.348,1.951-4.104,4.298-4.104H536.361z"
				/>
			<path class="st4" d="M543.887,213.052v8.01h-7.526c-2.348,0-4.298-1.559-4.298-3.906c0-2.348,1.951-4.104,4.298-4.104H543.887z"
				/>
			<path class="st4" d="M551.413,213.052v8.01h-7.526c-2.348,0-4.298-1.559-4.298-3.906c0-2.348,1.95-4.104,4.298-4.104H551.413z"/>
			<path class="st4" d="M594.114,214.808h-0.392c-3.613,4.787-7.624,6.254-13.879,6.254h-28.436c-5.57,0.489-5.667-8.498,0-8.01
				h18.079v-29.81h7.526v29.81h2.831c7.526,0,11.243-4.303,11.243-12.998v-16.813h7.423v19.547c0,7.623,2.836,11.433,8.602,11.433
				s8.602-4.886,8.602-12.314c0-4.201-0.88-8.597-2.544-13.193c-1.663-4.689-3.809-8.401-6.45-11.141l6.059-4.982
				c5.472,6.352,10.553,16.904,10.651,28.925v0.979c0,6.939,1.467,10.167,7.428,10.558v8.01c-5.57-0.195-9.184-2.048-10.651-5.569
				h-0.391c-2.831,4.2-7.037,6.255-12.607,6.255C601.248,221.747,596.95,219.406,594.114,214.808z M592.45,169.271h-8.01v-8.113
				h8.01V169.271z M598.221,157.148h-8.015v-8.107h8.015V157.148z M603.987,169.271h-8.015v-8.113h8.015V169.271z"/>
			<path class="st4" d="M638.672,150.117h7.526v54.041c0,11.236-5.086,16.904-15.346,16.904c-2.348,0-4.298-1.559-4.298-3.906
				c0-2.348,1.951-4.104,4.298-4.104c6.254,0,7.82-3.325,7.82-12.025V150.117z"/>
			<path class="st4" d="M658.604,150.117h7.526v70.945h-7.526V150.117z"/>
			<path class="st4" d="M736.098,185.394c-2.641-1.663-5.766-2.543-9.385-2.543c-7.82,0-12.803,5.281-12.803,15.443
				c0,3.418,0.685,6.254,2.348,9.477c1.858,3.13,5.961,5.281,11.531,5.281h13.78v8.01H723.49c-7.331,0-12.314,4.011-12.314,9.973
				c0,6.059,4.494,9.085,13.487,9.085c3.125,0,6.542-0.386,10.357-1.168l1.565,7.52c-3.521,1.076-7.819,1.662-12.802,1.662
				c-13.683,0-20.818-6.156-20.818-16.611c0-7.722,4.494-13.683,10.749-15.639v-0.49c-5.276-2.732-7.912-8.596-7.912-17.589
				c0-6.743,1.853-12.216,5.57-16.612c3.711-4.401,8.89-6.547,15.438-6.547c5.179,0,9.581,1.266,12.998,3.711L736.098,185.394z"/>
			<path class="st4" d="M753.975,150.117h7.526v70.945h-7.526V150.117z"/>
			<path class="st4" d="M802.538,213.052v-18.279c0-8.303-3.222-11.922-10.357-11.922c-4.689,0-8.896,1.272-12.607,3.815
				l-4.103-6.45c4.689-3.718,10.259-5.569,16.612-5.569c12.02,0,17.981,6.059,17.981,18.273v20.133h5.863v8.01h-42.021v-8.01h28.632
				V213.052z"/>
			<path class="st4" d="M823.454,213.052v8.01h-7.526c-2.348,0-4.298-1.559-4.298-3.906c0-2.348,1.951-4.104,4.298-4.104H823.454z"
				/>
			<path class="st4" d="M830.975,213.052v8.01h-7.526c-2.348,0-4.298-1.559-4.298-3.906c0-2.348,1.951-4.104,4.298-4.104H830.975z"
				/>
			<path class="st4" d="M838.5,213.052v8.01h-7.525c-2.348,0-4.299-1.559-4.299-3.906c0-2.348,1.951-4.104,4.299-4.104H838.5z"/>
			<path class="st4" d="M846.022,213.052v8.01h-7.527c-2.348,0-4.297-1.559-4.297-3.906c0-2.348,1.949-4.104,4.297-4.104H846.022z"
				/>
			<path class="st4" d="M853.547,213.052v8.01h-7.525c-2.348,0-4.299-1.559-4.299-3.906c0-2.348,1.951-4.104,4.299-4.104H853.547z"
				/>
			<path class="st4" d="M861.073,213.052v8.01h-7.526c-2.348,0-4.298-1.559-4.298-3.906c0-2.348,1.95-4.104,4.298-4.104H861.073z"/>
			<path class="st4" d="M868.594,213.052v8.01h-7.526c-2.348,0-4.298-1.559-4.298-3.906c0-2.348,1.95-4.104,4.298-4.104H868.594z"/>
			<path class="st4" d="M876.413,176.889h7.526v27.269c0,11.236-5.086,16.904-15.346,16.904c-2.348,0-4.299-1.559-4.299-3.906
				c0-2.348,1.951-4.104,4.299-4.104c3.418,0,5.57-0.88,6.45-2.738s1.369-4.982,1.369-9.287L876.413,176.889L876.413,176.889z
				 M880.418,237.191h-8.016v-8.113h8.016V237.191z"/>
			<path class="st4" d="M894.878,214.613l5.276-6.255c3.228,3.423,6.939,5.179,11.243,5.179c9.672,0,12.992-4.299,12.992-15.144
				v-48.275h7.526v53.845c0,5.863,1.858,8.603,7.33,9.091v8.01c-5.667-0.195-9.379-2.048-11.042-5.569
				c-3.423,4.011-8.699,6.059-15.834,6.059C904.85,221.551,898.987,219.209,894.878,214.613z M918.331,229.762l-2.147,4.005
				c-1.761-1.076-3.717-1.663-5.766-1.663c-3.228,0-4.885,1.272-4.885,3.913c0,2.445,1.56,3.619,4.592,3.619h8.108v4.885H897.91
				v-4.885h3.516l0.098-0.195c-0.881-0.881-1.271-2.25-1.271-3.913c0-4.298,3.228-8.309,10.167-8.309
				C913.445,227.219,916.087,228.099,918.331,229.762z M903.676,153.044h7.526v50.232h-7.526V153.044z"/>
			<path class="st4" d="M947.061,150.117h7.526v54.041c0,11.236-5.087,16.904-15.347,16.904c-2.347,0-4.298-1.559-4.298-3.906
				c0-2.348,1.951-4.104,4.298-4.104c6.255,0,7.82-3.325,7.82-12.025v-50.91H947.061z"/>
			<path class="st4" d="M1039.503,221.062h-21.888c-17.492,0-26.192-8.205-26.192-24.725v-9.672h7.526v6.449
				c0,13.293,4.494,19.938,18.079,19.938h14.949V191.55c0-11.041,6.548-16.904,16.813-16.904h12.998v38.406h5.863v8.01h-13.487
				v-38.31h-5.863c-6.353,0-8.798,3.62-8.798,10.755L1039.503,221.062L1039.503,221.062z M1019.468,237.191h-8.01v-8.113h8.01
				V237.191z M1031.005,237.191h-8.016v-8.113h8.016V237.191z"/>
			<path class="st4" d="M1075.166,213.052v8.01h-7.526c-2.348,0-4.298-1.559-4.298-3.906c0-2.348,1.95-4.104,4.298-4.104H1075.166z"
				/>
			<path class="st4" d="M1082.693,213.052v8.01h-7.526c-2.348,0-4.298-1.559-4.298-3.906c0-2.348,1.95-4.104,4.298-4.104H1082.693z"
				/>
			<path class="st4" d="M1090.213,213.052v8.01h-7.526c-2.348,0-4.298-1.559-4.298-3.906c0-2.348,1.95-4.104,4.298-4.104H1090.213z"
				/>
			<path class="st4" d="M1097.739,213.052v8.01h-7.526c-2.348,0-4.298-1.559-4.298-3.906c0-2.348,1.95-4.104,4.298-4.104H1097.739z"
				/>
			<path class="st4" d="M1105.265,213.052v8.01h-7.525c-2.348,0-4.299-1.559-4.299-3.906c0-2.348,1.951-4.104,4.299-4.104H1105.265z
				"/>
			<path class="st4" d="M1112.785,213.052v8.01h-7.525c-2.348,0-4.299-1.559-4.299-3.906c0-2.348,1.951-4.104,4.299-4.104H1112.785z
				"/>
			<path class="st4" d="M1120.606,176.889h7.525v27.269c0,11.236-5.086,16.904-15.346,16.904c-2.348,0-4.298-1.559-4.298-3.906
				c0-2.348,1.95-4.104,4.298-4.104c3.418,0,5.57-0.88,6.45-2.738c0.881-1.858,1.37-4.982,1.37-9.287L1120.606,176.889
				L1120.606,176.889z M1127.056,169.271h-8.016v-8.113h8.016V169.271z"/>
			<path class="st4" d="M1169.169,213.052v-18.279c0-8.303-3.223-11.922-10.357-11.922c-4.689,0-8.896,1.272-12.607,3.815
				l-4.103-6.45c4.689-3.718,10.26-5.569,16.612-5.569c12.02,0,17.98,6.059,17.98,18.273v28.143h-36.157v-8.01h28.632V213.052z"/>
			<path class="st4" d="M1175.906,233.278c8.694-0.294,12.411-3.907,12.411-13.774v-36.262h7.624v36.94
				c0,13.292-5.667,20.622-20.035,20.915V233.278z"/>
			<path class="st4" d="M1243.924,150.117v49.254c0,14.851-6.743,22.279-20.226,22.279c-6.646,0-12.998-2.734-16.813-7.037
				l5.374-6.354c3.521,3.522,7.232,5.277,11.146,5.277c8.89,0,12.998-4.299,12.998-15.144v-48.275H1243.924z M1230.144,133.988
				l-2.146,4.011c-1.761-1.076-3.717-1.663-5.766-1.663c-3.229,0-4.885,1.271-4.885,3.907c0,2.445,1.559,3.619,4.591,3.619h8.113
				v4.885h-20.328v-4.885h3.516l0.098-0.196c-0.881-0.88-1.271-2.25-1.271-3.912c0-4.299,3.228-8.303,10.167-8.303
				C1225.258,131.45,1227.9,132.325,1230.144,133.988z M1215.487,153.044h7.526v50.232h-7.526V153.044z"/>
			<path class="st4" d="M1256.329,150.117h7.526v70.945h-7.526V150.117z"/>
			<path class="st4" d="M1348.773,221.062h-21.889c-17.492,0-26.191-8.205-26.191-24.725v-9.672h7.525v6.449
				c0,13.293,4.494,19.938,18.079,19.938h14.955V191.55c0-11.041,6.542-16.904,16.808-16.904h12.998v38.406h5.863v8.01h-13.487
				v-38.31h-5.863c-6.353,0-8.798,3.62-8.798,10.755L1348.773,221.062L1348.773,221.062z"/>
			<path class="st4" d="M1388.837,213.052c1.663,0,3.032,0.099,3.907,0.196l0.098-0.489c-5.472-2.836-9.575-10.265-9.575-18.568
				c0-5.575,1.762-10.265,5.375-13.976c3.619-3.718,8.406-5.569,14.27-5.569c6.255,0,11.14,1.949,14.753,5.961
				c3.619,4.004,5.478,9.281,5.478,15.828c0,6.646-1.956,12.021-5.766,16.129l0.288,0.488h11.341v8.01h-52.09
				c-2.348,0-4.299-1.754-4.299-4.102c0-2.348,1.951-3.908,4.299-3.908H1388.837z M1391.282,193.8
				c0,9.672,6.157,16.123,17.395,18.568c4.396-3.229,6.646-8.407,6.646-15.346c0-9.086-4.983-14.564-12.411-14.564
				C1395.581,182.458,1391.282,187.056,1391.282,193.8z M1401.151,166.825h-8.016v-8.113h8.016V166.825z M1412.682,166.825h-8.01
				v-8.113h8.01V166.825z"/>
			<path class="st4" d="M1436.814,202.886v-19.644h7.526v20.72c0,5.863,2.439,8.896,7.324,9.091v8.01
				c-4.396,0-8.89-1.656-10.748-5.275c-2.445,3.522-6.45,5.275-11.923,5.275c-2.347,0-4.298-1.559-4.298-3.906
				c0-2.348,1.951-4.104,4.298-4.104C1434.564,213.052,1436.814,209.923,1436.814,202.886z M1438.569,175.134h-8.01v-8.113h8.01
				V175.134z M1450.105,175.134h-8.015v-8.113h8.015V175.134z"/>
			<path class="st4" d="M1459.484,202.886v-52.769h7.526v53.845c0,5.863,2.44,8.896,7.325,9.091v8.01
				c-4.396,0-8.89-1.656-10.748-5.275c-2.445,3.522-6.451,5.275-11.923,5.275c-2.348,0-4.298-1.559-4.298-3.906
				c0-2.348,1.95-4.104,4.298-4.104C1457.235,213.052,1459.484,209.923,1459.484,202.886z"/>
			<path class="st4" d="M1481.862,213.052v8.01h-7.526c-2.348,0-4.299-1.559-4.299-3.906c0-2.348,1.951-4.104,4.299-4.104H1481.862z
				"/>
			<path class="st4" d="M1489.388,213.052v8.01h-7.526c-2.348,0-4.299-1.559-4.299-3.906c0-2.348,1.951-4.104,4.299-4.104H1489.388z
				"/>
			<path class="st4" d="M1496.907,213.052v8.01h-7.525c-2.348,0-4.299-1.559-4.299-3.906c0-2.348,1.951-4.104,4.299-4.104H1496.907z
				"/>
			<path class="st4" d="M1504.434,213.052v8.01h-7.526c-2.348,0-4.298-1.559-4.298-3.906c0-2.348,1.95-4.104,4.298-4.104H1504.434z"
				/>
			<path class="st4" d="M1511.954,213.052v8.01h-7.526c-2.348,0-4.298-1.559-4.298-3.906c0-2.348,1.95-4.104,4.298-4.104H1511.954z"
				/>
			<path class="st4" d="M1507.656,217.058c0-2.348,1.95-4.006,4.298-4.006c6.255,0,7.819-4.01,7.819-10.949v-4.005
				c0-14.856,7.331-23.452,20.616-23.452c12.607,0,19.449,8.106,19.449,23.746c0,1.076-0.196,4.396-0.196,5.569
				c0,5.863,2.446,8.896,7.331,9.091v8.01c-5.766,0-9.673-1.853-11.727-5.668c-3.32,4.201-8.603,6.256-15.829,6.256
				c-7.135,0-12.216-2.055-15.444-6.157c-2.348,3.717-6.352,5.569-12.02,5.569C1509.607,221.062,1507.656,219.406,1507.656,217.058z
				 M1527.881,198c0,10.553,3.032,15.731,12.026,15.731c5.766,0,9.574-2.537,11.335-7.717c0.489-1.565,0.782-4.694,0.782-9.286
				c0-9.379-4.499-14.172-11.83-14.172C1531.989,182.557,1527.881,187.742,1527.881,198z"/>
			<path class="st4" d="M1574.787,150.117h7.526v54.041c0,11.236-5.087,16.904-15.346,16.904c-2.348,0-4.299-1.559-4.299-3.906
				c0-2.348,1.951-4.104,4.299-4.104c6.254,0,7.819-3.325,7.819-12.025L1574.787,150.117L1574.787,150.117z"/>
			<path class="st4" d="M1594.719,150.117h7.526v70.945h-7.526V150.117z"/>
		</g>
	</g>
</g>
</svg>
